<svg aria-hidden="true" style="position: absolute; width: 0; height: 0; overflow: hidden;" version="1.1" xmlns="http://www.w3.org/2000/svg" xmlns:xlink="http://www.w3.org/1999/xlink">
<defs>
<symbol id="icon-location" viewBox="0 0 32 32">
<path fill="#4788ff" style="fill: var(--color4, #4788ff)" d="M24.485 7.515l-8.485 18.485-2-8-8-2 18.485-8.485z"></path>
<path fill="#0a4ecb" style="fill: var(--color2, #0a4ecb)" d="M24.485 7.515l-8.485 18.485-2-8 10.485-10.485z"></path>
</symbol>
<symbol id="icon-clock" viewBox="0 0 32 32">
<path fill="none" stroke="#0a4ecb" style="stroke: var(--color1, #0a4ecb)" stroke-linejoin="miter" stroke-linecap="butt" stroke-miterlimit="4" stroke-width="2" d="M27 16c0 6.075-4.925 11-11 11s-11-4.925-11-11c0-6.075 4.925-11 11-11s11 4.925 11 11z"></path>
<path fill="#0a4ecb" style="fill: var(--color1, #0a4ecb)" d="M15 5h2v12h-2v-12z"></path>
<path fill="#0a4ecb" style="fill: var(--color1, #0a4ecb)" d="M23 16v2h-8v-2h8z"></path>
</symbol>
<symbol id="union" viewBox="0 0 29 32">
<path fill="#0a4ecb" style="fill: var(--color1, #0a4ecb)" d="M0 10.645c0-1.914 1.020-3.681 2.673-4.634l9.206-5.303c1.634-0.941 3.642-0.945 5.279-0.009l9.3 5.315c1.662 0.95 2.689 2.722 2.689 4.643v10.685c0 1.92-1.026 3.693-2.689 4.643l-9.3 5.315c-1.637 0.936-3.645 0.932-5.279-0.009l-9.206-5.303c-1.653-0.952-2.673-2.72-2.673-4.634v-10.71zM2.313 21.355c0 1.082 0.576 2.081 1.511 2.619l2.075 1.195v-18.338l-2.075 1.195c-0.934 0.538-1.511 1.537-1.511 2.619v10.71zM10.525 27.834l2.504 1.443c0.924 0.532 2.059 0.534 2.984 0.005l8.355-4.775h-13.959c-0.639 0-1.157-0.52-1.157-1.161s0.518-1.161 1.157-1.161h16.305c0.078-0.27 0.119-0.553 0.119-0.842v-8.681h-16.424c-0.639 0-1.157-0.52-1.157-1.161s0.518-1.161 1.157-1.161h16.407c-0.101-0.96-0.656-1.821-1.503-2.305l-9.3-5.315c-0.925-0.529-2.060-0.527-2.984 0.005l-2.504 1.443v5.244c-1.15 0-2.082 0.936-2.082 2.090s0.932 2.090 2.082 2.090v7.665c-1.15 0-2.082 0.936-2.082 2.090s0.932 2.090 2.082 2.090v2.398z"></path>
</symbol>
<symbol id="icon-Polygon-1" viewBox="0 0 32 32">
<path fill="#4788ff" style="fill: var(--color2, #4788ff)" d="M29.576 2.424l-13.576 29.576-3.2-12.8-12.8-3.2 29.576-13.576z"></path>
<symbol id="icon-logo" viewBox="0 0 137 32">
<path fill="#0a4ecb" style="fill: var(--color1, #0a4ecb)" d="M0 10.645c0-1.914 1.020-3.681 2.673-4.634l9.206-5.303c1.634-0.941 3.642-0.945 5.279-0.009l9.3 5.315c1.662 0.95 2.689 2.722 2.689 4.643v10.685c0 1.92-1.026 3.693-2.689 4.643l-9.3 5.315c-1.637 0.936-3.645 0.932-5.279-0.009l-9.206-5.303c-1.653-0.952-2.673-2.72-2.673-4.634v-10.71zM2.313 21.355c0 1.082 0.576 2.081 1.511 2.619l2.075 1.195v-18.338l-2.075 1.195c-0.934 0.538-1.511 1.537-1.511 2.619v10.71zM10.525 27.834l2.504 1.443c0.924 0.532 2.059 0.534 2.984 0.005l8.355-4.775h-13.959c-0.639 0-1.157-0.52-1.157-1.161s0.518-1.161 1.157-1.161h16.305c0.078-0.27 0.119-0.553 0.119-0.842v-8.681h-16.424c-0.639 0-1.157-0.52-1.157-1.161s0.518-1.161 1.157-1.161h16.407c-0.101-0.96-0.656-1.821-1.503-2.305l-9.3-5.315c-0.925-0.529-2.060-0.527-2.984 0.005l-2.504 1.443v5.244c-1.15 0-2.082 0.936-2.082 2.090s0.932 2.090 2.082 2.090v7.665c-1.15 0-2.082 0.936-2.082 2.090s0.932 2.090 2.082 2.090v2.398z"></path>
<path fill="#f04716" style="fill: var(--color2, #f04716)" d="M39.633 18.325c-0.907 0-1.787-0.112-2.64-0.336s-1.547-0.523-2.080-0.896l1.040-2.336c0.501 0.331 1.083 0.597 1.744 0.8s1.312 0.304 1.952 0.304c1.216 0 1.824-0.304 1.824-0.912 0-0.32-0.176-0.555-0.528-0.704-0.341-0.16-0.896-0.325-1.664-0.496-0.843-0.181-1.547-0.373-2.112-0.576-0.565-0.213-1.051-0.549-1.456-1.008s-0.608-1.077-0.608-1.856c0-0.683 0.187-1.296 0.56-1.84 0.373-0.555 0.928-0.992 1.664-1.312 0.747-0.32 1.659-0.48 2.736-0.48 0.736 0 1.462 0.085 2.176 0.256 0.715 0.16 1.344 0.4 1.888 0.72l-0.976 2.352c-1.067-0.576-2.102-0.864-3.104-0.864-0.629 0-1.088 0.096-1.376 0.288-0.288 0.181-0.432 0.421-0.432 0.72s0.171 0.523 0.512 0.672c0.341 0.149 0.891 0.304 1.648 0.464 0.853 0.181 1.558 0.379 2.112 0.592 0.565 0.203 1.051 0.533 1.456 0.992 0.416 0.448 0.624 1.061 0.624 1.84 0 0.672-0.187 1.28-0.56 1.824s-0.933 0.981-1.68 1.312c-0.747 0.32-1.654 0.48-2.72 0.48z"></path>
<path fill="#f04716" style="fill: var(--color2, #f04716)" d="M51.818 6.901c1.014 0 1.894 0.171 2.641 0.512 0.747 0.331 1.323 0.811 1.728 1.44 0.406 0.619 0.608 1.349 0.608 2.192s-0.202 1.573-0.608 2.192c-0.405 0.619-0.981 1.099-1.728 1.44-0.747 0.331-1.627 0.496-2.641 0.496h-1.952v2.928h-3.168v-11.2h5.121zM51.626 12.677c0.651 0 1.142-0.139 1.472-0.416 0.331-0.288 0.496-0.693 0.496-1.216s-0.165-0.928-0.496-1.216c-0.33-0.288-0.821-0.432-1.472-0.432h-1.76v3.28h1.76z"></path>
<path fill="#f04716" style="fill: var(--color2, #f04716)" d="M64.785 18.325c-1.184 0-2.251-0.251-3.201-0.752-0.939-0.501-1.68-1.195-2.225-2.080-0.533-0.885-0.8-1.883-0.8-2.992s0.267-2.107 0.8-2.992c0.545-0.885 1.286-1.579 2.225-2.080 0.95-0.501 2.017-0.752 3.201-0.752s2.246 0.251 3.185 0.752c0.949 0.501 1.691 1.195 2.224 2.080 0.544 0.885 0.816 1.883 0.816 2.992s-0.272 2.107-0.816 2.992c-0.533 0.885-1.275 1.579-2.224 2.080-0.939 0.501-2.001 0.752-3.185 0.752zM64.785 15.701c0.565 0 1.077-0.133 1.536-0.4s0.822-0.64 1.089-1.12c0.266-0.491 0.4-1.051 0.4-1.68s-0.134-1.184-0.4-1.664c-0.267-0.491-0.63-0.869-1.089-1.136s-0.971-0.4-1.536-0.4c-0.566 0-1.078 0.133-1.537 0.4s-0.821 0.645-1.088 1.136c-0.267 0.48-0.4 1.035-0.4 1.664s0.133 1.189 0.4 1.68c0.267 0.48 0.63 0.853 1.088 1.12s0.971 0.4 1.537 0.4z"></path>
<path fill="#f04716" style="fill: var(--color2, #f04716)" d="M78.205 15.125h-1.728v2.976h-3.169v-11.2h5.121c1.014 0 1.894 0.171 2.641 0.512 0.747 0.331 1.323 0.811 1.728 1.44 0.406 0.619 0.608 1.349 0.608 2.192 0 0.811-0.192 1.52-0.576 2.128-0.373 0.597-0.912 1.067-1.616 1.408l2.417 3.52h-3.393l-2.033-2.976zM80.206 11.045c0-0.523-0.166-0.928-0.496-1.216s-0.822-0.432-1.473-0.432h-1.76v3.28h1.76c0.651 0 1.142-0.139 1.473-0.416 0.33-0.288 0.496-0.693 0.496-1.216z"></path>
<path fill="#f04716" style="fill: var(--color2, #f04716)" d="M88.022 9.413h-3.441v-2.512h10.034v2.512h-3.425v8.688h-3.169v-8.688z"></path>
<path fill="#f04716" style="fill: var(--color2, #f04716)" d="M101.928 18.325c-1.184 0-2.251-0.251-3.201-0.752-0.939-0.501-1.68-1.195-2.225-2.080-0.533-0.885-0.8-1.883-0.8-2.992s0.267-2.107 0.8-2.992c0.545-0.885 1.286-1.579 2.225-2.080 0.95-0.501 2.017-0.752 3.201-0.752s2.246 0.251 3.185 0.752c0.949 0.501 1.691 1.195 2.224 2.080 0.544 0.885 0.816 1.883 0.816 2.992s-0.272 2.107-0.816 2.992c-0.533 0.885-1.275 1.579-2.224 2.080-0.939 0.501-2.001 0.752-3.185 0.752zM101.928 15.701c0.565 0 1.077-0.133 1.536-0.4s0.822-0.64 1.089-1.12c0.266-0.491 0.4-1.051 0.4-1.68s-0.134-1.184-0.4-1.664c-0.267-0.491-0.63-0.869-1.089-1.136s-0.971-0.4-1.536-0.4c-0.566 0-1.078 0.133-1.537 0.4s-0.821 0.645-1.088 1.136c-0.267 0.48-0.4 1.035-0.4 1.664s0.133 1.189 0.4 1.68c0.267 0.48 0.63 0.853 1.088 1.12s0.971 0.4 1.537 0.4z"></path>
<path fill="#f04716" style="fill: var(--color2, #f04716)" d="M121.423 6.901l-4.801 11.2h-3.121l-4.785-11.2h3.424l3.041 7.296 3.105-7.296h3.137z"></path>
<path fill="#f04716" style="fill: var(--color2, #f04716)" d="M129.834 15.925h-4.737l-0.88 2.176h-3.233l4.945-11.2h3.12l4.961 11.2h-3.297l-0.88-2.176zM128.905 13.589l-1.44-3.584-1.44 3.584h2.88z"></path>
<path fill="none" stroke="#000" style="stroke: var(--color3, #000)" stroke-linejoin="miter" stroke-linecap="butt" stroke-miterlimit="4" stroke-width="1.0323" d="M39.633 18.325c-0.907 0-1.787-0.112-2.64-0.336s-1.547-0.523-2.080-0.896l1.040-2.336c0.501 0.331 1.083 0.597 1.744 0.8s1.312 0.304 1.952 0.304c1.216 0 1.824-0.304 1.824-0.912 0-0.32-0.176-0.555-0.528-0.704-0.341-0.16-0.896-0.325-1.664-0.496-0.843-0.181-1.547-0.373-2.112-0.576-0.565-0.213-1.051-0.549-1.456-1.008s-0.608-1.077-0.608-1.856c0-0.683 0.187-1.296 0.56-1.84 0.373-0.555 0.928-0.992 1.664-1.312 0.747-0.32 1.659-0.48 2.736-0.48 0.736 0 1.462 0.085 2.176 0.256 0.715 0.16 1.344 0.4 1.888 0.72l-0.976 2.352c-1.067-0.576-2.102-0.864-3.104-0.864-0.629 0-1.088 0.096-1.376 0.288-0.288 0.181-0.432 0.421-0.432 0.72s0.171 0.523 0.512 0.672c0.341 0.149 0.891 0.304 1.648 0.464 0.853 0.181 1.558 0.379 2.112 0.592 0.565 0.203 1.051 0.533 1.456 0.992 0.416 0.448 0.624 1.061 0.624 1.84 0 0.672-0.187 1.28-0.56 1.824s-0.933 0.981-1.68 1.312c-0.747 0.32-1.654 0.48-2.72 0.48z"></path>
<path fill="none" stroke="#000" style="stroke: var(--color3, #000)" stroke-linejoin="miter" stroke-linecap="butt" stroke-miterlimit="4" stroke-width="1.0323" d="M51.818 6.901c1.014 0 1.894 0.171 2.641 0.512 0.747 0.331 1.323 0.811 1.728 1.44 0.406 0.619 0.608 1.349 0.608 2.192s-0.202 1.573-0.608 2.192c-0.405 0.619-0.981 1.099-1.728 1.44-0.747 0.331-1.627 0.496-2.641 0.496h-1.952v2.928h-3.168v-11.2h5.121zM51.626 12.677c0.651 0 1.142-0.139 1.472-0.416 0.331-0.288 0.496-0.693 0.496-1.216s-0.165-0.928-0.496-1.216c-0.33-0.288-0.821-0.432-1.472-0.432h-1.76v3.28h1.76z"></path>
<path fill="none" stroke="#000" style="stroke: var(--color3, #000)" stroke-linejoin="miter" stroke-linecap="butt" stroke-miterlimit="4" stroke-width="1.0323" d="M64.785 18.325c-1.184 0-2.251-0.251-3.201-0.752-0.939-0.501-1.68-1.195-2.225-2.080-0.533-0.885-0.8-1.883-0.8-2.992s0.267-2.107 0.8-2.992c0.545-0.885 1.286-1.579 2.225-2.080 0.95-0.501 2.017-0.752 3.201-0.752s2.246 0.251 3.185 0.752c0.949 0.501 1.691 1.195 2.224 2.080 0.544 0.885 0.816 1.883 0.816 2.992s-0.272 2.107-0.816 2.992c-0.533 0.885-1.275 1.579-2.224 2.080-0.939 0.501-2.001 0.752-3.185 0.752zM64.785 15.701c0.565 0 1.077-0.133 1.536-0.4s0.822-0.64 1.089-1.12c0.266-0.491 0.4-1.051 0.4-1.68s-0.134-1.184-0.4-1.664c-0.267-0.491-0.63-0.869-1.089-1.136s-0.971-0.4-1.536-0.4c-0.566 0-1.078 0.133-1.537 0.4s-0.821 0.645-1.088 1.136c-0.267 0.48-0.4 1.035-0.4 1.664s0.133 1.189 0.4 1.68c0.267 0.48 0.63 0.853 1.088 1.12s0.971 0.4 1.537 0.4z"></path>
<path fill="none" stroke="#000" style="stroke: var(--color3, #000)" stroke-linejoin="miter" stroke-linecap="butt" stroke-miterlimit="4" stroke-width="1.0323" d="M78.205 15.125h-1.728v2.976h-3.169v-11.2h5.121c1.014 0 1.894 0.171 2.641 0.512 0.747 0.331 1.323 0.811 1.728 1.44 0.406 0.619 0.608 1.349 0.608 2.192 0 0.811-0.192 1.52-0.576 2.128-0.373 0.597-0.912 1.067-1.616 1.408l2.417 3.52h-3.393l-2.033-2.976zM80.206 11.045c0-0.523-0.166-0.928-0.496-1.216s-0.822-0.432-1.473-0.432h-1.76v3.28h1.76c0.651 0 1.142-0.139 1.473-0.416 0.33-0.288 0.496-0.693 0.496-1.216z"></path>
<path fill="none" stroke="#000" style="stroke: var(--color3, #000)" stroke-linejoin="miter" stroke-linecap="butt" stroke-miterlimit="4" stroke-width="1.0323" d="M88.022 9.413h-3.441v-2.512h10.034v2.512h-3.425v8.688h-3.169v-8.688z"></path>
<path fill="none" stroke="#000" style="stroke: var(--color3, #000)" stroke-linejoin="miter" stroke-linecap="butt" stroke-miterlimit="4" stroke-width="1.0323" d="M101.928 18.325c-1.184 0-2.251-0.251-3.201-0.752-0.939-0.501-1.68-1.195-2.225-2.080-0.533-0.885-0.8-1.883-0.8-2.992s0.267-2.107 0.8-2.992c0.545-0.885 1.286-1.579 2.225-2.080 0.95-0.501 2.017-0.752 3.201-0.752s2.246 0.251 3.185 0.752c0.949 0.501 1.691 1.195 2.224 2.080 0.544 0.885 0.816 1.883 0.816 2.992s-0.272 2.107-0.816 2.992c-0.533 0.885-1.275 1.579-2.224 2.080-0.939 0.501-2.001 0.752-3.185 0.752zM101.928 15.701c0.565 0 1.077-0.133 1.536-0.4s0.822-0.64 1.089-1.12c0.266-0.491 0.4-1.051 0.4-1.68s-0.134-1.184-0.4-1.664c-0.267-0.491-0.63-0.869-1.089-1.136s-0.971-0.4-1.536-0.4c-0.566 0-1.078 0.133-1.537 0.4s-0.821 0.645-1.088 1.136c-0.267 0.48-0.4 1.035-0.4 1.664s0.133 1.189 0.4 1.68c0.267 0.48 0.63 0.853 1.088 1.12s0.971 0.4 1.537 0.4z"></path>
<path fill="none" stroke="#000" style="stroke: var(--color3, #000)" stroke-linejoin="miter" stroke-linecap="butt" stroke-miterlimit="4" stroke-width="1.0323" d="M121.423 6.901l-4.801 11.2h-3.121l-4.785-11.2h3.424l3.041 7.296 3.105-7.296h3.137z"></path>
<path fill="none" stroke="#000" style="stroke: var(--color3, #000)" stroke-linejoin="miter" stroke-linecap="butt" stroke-miterlimit="4" stroke-width="1.0323" d="M129.834 15.925h-4.737l-0.88 2.176h-3.233l4.945-11.2h3.12l4.961 11.2h-3.297l-0.88-2.176zM128.905 13.589l-1.44-3.584-1.44 3.584h2.88z"></path>
<path fill="#0a4ecb" style="fill: var(--color1, #0a4ecb)" d="M36.959 25.439c-0.31 0-0.59-0.069-0.841-0.206-0.247-0.137-0.443-0.326-0.586-0.568-0.14-0.244-0.21-0.517-0.21-0.818s0.070-0.572 0.21-0.814c0.143-0.244 0.34-0.435 0.59-0.572s0.531-0.206 0.841-0.206c0.233 0 0.447 0.039 0.644 0.116s0.364 0.191 0.501 0.34l-0.21 0.21c-0.244-0.247-0.553-0.371-0.926-0.371-0.247 0-0.472 0.057-0.675 0.17s-0.362 0.268-0.478 0.465c-0.113 0.197-0.17 0.417-0.17 0.662s0.057 0.465 0.17 0.662c0.116 0.197 0.276 0.352 0.478 0.465s0.428 0.17 0.675 0.17c0.376 0 0.684-0.125 0.926-0.376l0.21 0.21c-0.137 0.149-0.306 0.264-0.505 0.344-0.197 0.077-0.411 0.116-0.644 0.116z"></path>
<path fill="#0a4ecb" style="fill: var(--color1, #0a4ecb)" d="M43.124 22.282v3.129h-0.326v-2.843h-1.981v2.843h-0.326v-3.129h2.634z"></path>
<path fill="#0a4ecb" style="fill: var(--color1, #0a4ecb)" d="M47.252 25.439c-0.31 0-0.592-0.069-0.845-0.206-0.25-0.14-0.447-0.331-0.59-0.572-0.14-0.241-0.21-0.513-0.21-0.814s0.070-0.572 0.21-0.814c0.143-0.241 0.34-0.431 0.59-0.568 0.253-0.14 0.535-0.21 0.845-0.21s0.589 0.069 0.836 0.206c0.25 0.137 0.447 0.328 0.59 0.572 0.143 0.241 0.215 0.513 0.215 0.814s-0.072 0.574-0.215 0.818c-0.143 0.241-0.34 0.431-0.59 0.568-0.247 0.137-0.526 0.206-0.836 0.206zM47.252 25.144c0.247 0 0.471-0.055 0.671-0.165 0.2-0.113 0.356-0.268 0.469-0.465 0.113-0.2 0.17-0.422 0.17-0.666s-0.057-0.465-0.17-0.662c-0.113-0.2-0.27-0.355-0.469-0.465-0.2-0.113-0.423-0.17-0.671-0.17s-0.472 0.057-0.675 0.17c-0.2 0.11-0.358 0.265-0.474 0.465-0.113 0.197-0.17 0.417-0.17 0.662s0.057 0.466 0.17 0.666c0.116 0.197 0.274 0.352 0.474 0.465 0.203 0.11 0.428 0.165 0.675 0.165z"></path>
<path fill="#0a4ecb" style="fill: var(--color1, #0a4ecb)" d="M52.553 22.282c0.399 0 0.712 0.095 0.939 0.286s0.34 0.453 0.34 0.787c0 0.334-0.113 0.596-0.34 0.787-0.227 0.188-0.54 0.282-0.939 0.282h-0.841v0.988h-0.331v-3.129h1.172zM52.544 24.133c0.31 0 0.547-0.067 0.711-0.201 0.164-0.137 0.246-0.329 0.246-0.577 0-0.253-0.082-0.447-0.246-0.581-0.164-0.137-0.401-0.206-0.711-0.206h-0.831v1.565h0.831z"></path>
<path fill="#0a4ecb" style="fill: var(--color1, #0a4ecb)" d="M58.154 22.568h-1.1v2.843h-0.326v-2.843h-1.1v-0.286h2.526v0.286z"></path>
<path fill="#0a4ecb" style="fill: var(--color1, #0a4ecb)" d="M60.434 22.282h0.327v2.593l2.003-2.593h0.299v3.129h-0.326v-2.588l-2.003 2.588h-0.3v-3.129z"></path>
<path fill="#0a4ecb" style="fill: var(--color1, #0a4ecb)" d="M67.674 23.798c0.218 0.045 0.383 0.133 0.497 0.264 0.114 0.128 0.17 0.297 0.17 0.505 0 0.271-0.097 0.48-0.291 0.626-0.19 0.146-0.472 0.219-0.845 0.219h-1.386v-3.129h1.301c0.334 0 0.595 0.069 0.782 0.206s0.282 0.335 0.282 0.595c0 0.176-0.045 0.325-0.134 0.447-0.089 0.119-0.215 0.209-0.376 0.268zM66.145 23.7h0.957c0.241 0 0.426-0.049 0.554-0.148 0.131-0.098 0.197-0.241 0.197-0.429s-0.066-0.331-0.197-0.429c-0.128-0.098-0.313-0.148-0.554-0.148h-0.957v1.153zM67.205 25.148c0.539 0 0.809-0.201 0.809-0.604 0-0.393-0.27-0.59-0.809-0.59h-1.060v1.194h1.060z"></path>
<path fill="#0a4ecb" style="fill: var(--color1, #0a4ecb)" d="M73.482 22.282v3.129h-0.327v-1.444h-1.958v1.444h-0.331v-3.129h0.331v1.395h1.958v-1.395h0.327z"></path>
<path fill="#0a4ecb" style="fill: var(--color1, #0a4ecb)" d="M77.548 23.4c0.37 0 0.651 0.083 0.845 0.25 0.197 0.167 0.295 0.411 0.295 0.733 0 0.337-0.104 0.593-0.313 0.769-0.206 0.173-0.504 0.259-0.894 0.259h-1.243v-3.129h0.326v1.118h0.984zM77.472 25.148c0.289 0 0.508-0.064 0.657-0.192 0.152-0.128 0.228-0.317 0.228-0.568 0-0.48-0.295-0.72-0.885-0.72h-0.908v1.48h0.908zM79.229 22.282h0.327v3.129h-0.327v-3.129z"></path>
<path fill="#0a4ecb" style="fill: var(--color1, #0a4ecb)" d="M84.521 25.126v0.286h-2.213v-3.129h2.146v0.286h-1.815v1.113h1.619v0.282h-1.619v1.162h1.882z"></path>
<path fill="#0a4ecb" style="fill: var(--color1, #0a4ecb)" d="M90.86 23.977h-0.715v1.435h-0.322v-3.129h0.322v1.404h0.715l1.060-1.404h0.358l-1.162 1.52 1.229 1.609h-0.38l-1.105-1.435z"></path>
<path fill="#0a4ecb" style="fill: var(--color1, #0a4ecb)" d="M95.921 25.439c-0.31 0-0.592-0.069-0.845-0.206-0.25-0.14-0.447-0.331-0.59-0.572-0.14-0.241-0.21-0.513-0.21-0.814s0.070-0.572 0.21-0.814c0.143-0.241 0.34-0.431 0.59-0.568 0.253-0.14 0.535-0.21 0.845-0.21s0.588 0.069 0.836 0.206c0.25 0.137 0.447 0.328 0.59 0.572 0.143 0.241 0.215 0.513 0.215 0.814s-0.072 0.574-0.215 0.818c-0.143 0.241-0.34 0.431-0.59 0.568-0.248 0.137-0.526 0.206-0.836 0.206zM95.921 25.144c0.247 0 0.471-0.055 0.67-0.165 0.2-0.113 0.356-0.268 0.47-0.465 0.113-0.2 0.17-0.422 0.17-0.666s-0.057-0.465-0.17-0.662c-0.114-0.2-0.27-0.355-0.47-0.465-0.2-0.113-0.423-0.17-0.67-0.17s-0.473 0.057-0.675 0.17c-0.2 0.11-0.358 0.265-0.474 0.465-0.113 0.197-0.17 0.417-0.17 0.662s0.057 0.466 0.17 0.666c0.117 0.197 0.275 0.352 0.474 0.465 0.202 0.11 0.427 0.165 0.675 0.165z"></path>
<path fill="#0a4ecb" style="fill: var(--color1, #0a4ecb)" d="M103.301 22.282v3.129h-0.317v-2.504l-1.23 2.106h-0.156l-1.229-2.092v2.49h-0.317v-3.129h0.273l1.359 2.32 1.346-2.32h0.273z"></path>
<path fill="#0a4ecb" style="fill: var(--color1, #0a4ecb)" d="M108.688 22.282v3.129h-0.326v-2.843h-1.981v2.843h-0.326v-3.129h2.633z"></path>
<path fill="#0a4ecb" style="fill: var(--color1, #0a4ecb)" d="M113.85 22.282v3.129h-0.326v-2.843h-1.511l-0.036 1.046c-0.015 0.432-0.051 0.781-0.107 1.046-0.054 0.262-0.137 0.459-0.25 0.59-0.114 0.128-0.264 0.192-0.452 0.192-0.081 0-0.164-0.010-0.25-0.031l0.027-0.295c0.051 0.012 0.1 0.018 0.147 0.018 0.132 0 0.237-0.052 0.317-0.157 0.084-0.104 0.146-0.265 0.188-0.483 0.042-0.221 0.070-0.511 0.085-0.872l0.045-1.341h2.123z"></path>
<path fill="#0a4ecb" style="fill: var(--color1, #0a4ecb)" d="M118.818 25.126v0.286h-2.213v-3.129h2.146v0.286h-1.815v1.113h1.619v0.282h-1.619v1.162h1.882z"></path>
<path fill="#0a4ecb" style="fill: var(--color1, #0a4ecb)" d="M122.289 23.977h-0.715v1.435h-0.322v-3.129h0.322v1.404h0.715l1.060-1.404h0.358l-1.162 1.52 1.229 1.609h-0.38l-1.105-1.435z"></path>
<path fill="#0a4ecb" style="fill: var(--color1, #0a4ecb)" d="M127.345 25.439c-0.31 0-0.59-0.069-0.841-0.206-0.247-0.137-0.442-0.326-0.586-0.568-0.14-0.244-0.21-0.517-0.21-0.818s0.070-0.572 0.21-0.814c0.143-0.244 0.34-0.435 0.59-0.572s0.531-0.206 0.841-0.206c0.232 0 0.447 0.039 0.644 0.116s0.364 0.191 0.501 0.34l-0.21 0.21c-0.244-0.247-0.553-0.371-0.925-0.371-0.247 0-0.472 0.057-0.675 0.17s-0.362 0.268-0.478 0.465c-0.114 0.197-0.17 0.417-0.17 0.662s0.056 0.465 0.17 0.662c0.116 0.197 0.276 0.352 0.478 0.465s0.428 0.17 0.675 0.17c0.376 0 0.684-0.125 0.925-0.376l0.21 0.21c-0.137 0.149-0.306 0.264-0.505 0.344-0.197 0.077-0.411 0.116-0.644 0.116z"></path>
<path fill="#0a4ecb" style="fill: var(--color1, #0a4ecb)" d="M132.186 23.4c0.37 0 0.651 0.083 0.845 0.25 0.197 0.167 0.295 0.411 0.295 0.733 0 0.337-0.104 0.593-0.313 0.769-0.205 0.173-0.504 0.259-0.894 0.259h-1.243v-3.129h0.327v1.118h0.983zM132.11 25.148c0.289 0 0.508-0.064 0.658-0.192 0.152-0.128 0.228-0.317 0.228-0.568 0-0.48-0.295-0.72-0.885-0.72h-0.907v1.48h0.907zM133.867 22.282h0.326v3.129h-0.326v-3.129z"></path>
</symbol>
<symbol id="icon-love" viewBox="0 0 32 32">
<path fill="#fff" style="fill: var(--color1, #fff)" d="M0 8.348c0-4.61 3.737-8.348 8.348-8.348h15.304c4.61 0 8.348 3.737 8.348 8.348v15.304c0 4.61-3.737 8.348-8.348 8.348h-15.304c-4.61 0-8.348-3.737-8.348-8.348v-15.304z"></path>
<path fill="none" stroke="#6e7284" style="stroke: var(--color2, #6e7284)" stroke-linejoin="miter" stroke-linecap="butt" stroke-miterlimit="4" stroke-width="0.6957" d="M16 11.818c-1.391-3.128-7.652-2.955-7.652 2.089 0 4.414 4.522 6.962 7.652 8.353 3.13-1.391 7.652-3.939 7.652-8.353 0-5.045-6.261-5.217-7.652-2.089z"></path>
<path fill="#dedfe7" style="fill: var(--color3, #dedfe7)" d="M8.348 0.696h15.304v-1.391h-15.304v1.391zM31.304 8.348v15.304h1.391v-15.304h-1.391zM23.652 31.304h-15.304v1.391h15.304v-1.391zM0.696 23.652v-15.304h-1.391v15.304h1.391zM8.348 31.304c-4.226 0-7.652-3.426-7.652-7.652h-1.391c0 4.995 4.049 9.043 9.043 9.043v-1.391zM31.304 23.652c0 4.226-3.426 7.652-7.652 7.652v1.391c4.995 0 9.043-4.049 9.043-9.043h-1.391zM23.652 0.696c4.226 0 7.652 3.426 7.652 7.652h1.391c0-4.995-4.049-9.043-9.043-9.043v1.391zM8.348-0.696c-4.995 0-9.043 4.049-9.043 9.043h1.391c0-4.226 3.426-7.652 7.652-7.652v-1.391z"></path>
</symbol>
<symbol id="icon-comparison" viewBox="0 0 32 32">
<path fill="#fff" style="fill: var(--color1, #fff)" d="M0 8.348c0-4.61 3.737-8.348 8.348-8.348h15.304c4.61 0 8.348 3.737 8.348 8.348v15.304c0 4.61-3.737 8.348-8.348 8.348h-15.304c-4.61 0-8.348-3.737-8.348-8.348v-15.304z"></path>
<path fill="none" stroke="#6e7284" style="stroke: var(--color2, #6e7284)" stroke-linejoin="miter" stroke-linecap="butt" stroke-miterlimit="4" stroke-width="0.6957" d="M10.435 17.043c0.96 0 1.739 0.779 1.739 1.739v2.087c0 0.96-0.779 1.739-1.739 1.739s-1.739-0.779-1.739-1.739v-2.087c0-0.96 0.779-1.739 1.739-1.739z"></path>
<path fill="none" stroke="#6e7284" style="stroke: var(--color2, #6e7284)" stroke-linejoin="miter" stroke-linecap="butt" stroke-miterlimit="4" stroke-width="0.6957" d="M16 9.391c0.96 0 1.739 0.779 1.739 1.739v9.739c0 0.96-0.779 1.739-1.739 1.739s-1.739-0.779-1.739-1.739v-9.739c0-0.96 0.779-1.739 1.739-1.739z"></path>
<path fill="none" stroke="#6e7284" style="stroke: var(--color2, #6e7284)" stroke-linejoin="miter" stroke-linecap="butt" stroke-miterlimit="4" stroke-width="0.6957" d="M21.565 13.565c0.96 0 1.739 0.779 1.739 1.739v5.565c0 0.96-0.779 1.739-1.739 1.739s-1.739-0.779-1.739-1.739v-5.565c0-0.96 0.779-1.739 1.739-1.739z"></path>
<path fill="#dedfe7" style="fill: var(--color3, #dedfe7)" d="M8.348 0.696h15.304v-1.391h-15.304v1.391zM31.304 8.348v15.304h1.391v-15.304h-1.391zM23.652 31.304h-15.304v1.391h15.304v-1.391zM0.696 23.652v-15.304h-1.391v15.304h1.391zM8.348 31.304c-4.226 0-7.652-3.426-7.652-7.652h-1.391c0 4.995 4.049 9.043 9.043 9.043v-1.391zM31.304 23.652c0 4.226-3.426 7.652-7.652 7.652v1.391c4.995 0 9.043-4.049 9.043-9.043h-1.391zM23.652 0.696c4.226 0 7.652 3.426 7.652 7.652h1.391c0-4.995-4.049-9.043-9.043-9.043v1.391zM8.348-0.696c-4.995 0-9.043 4.049-9.043 9.043h1.391c0-4.226 3.426-7.652 7.652-7.652v-1.391z"></path>
</symbol>
<symbol id="icon-cart" viewBox="0 0 102 32">
<path fill="#fff" style="fill: var(--color1, #fff)" d="M0 8.348c0-4.61 3.737-8.348 8.348-8.348h84.87c4.61 0 8.348 3.737 8.348 8.348v15.304c0 4.61-3.738 8.348-8.348 8.348h-84.87c-4.61 0-8.348-3.737-8.348-8.348v-15.304z"></path>
<path fill="#6e7284" style="fill: var(--color2, #6e7284)" d="M8.348 10.087c0-0.192 0.156-0.348 0.348-0.348h2.087c0.16 0 0.299 0.109 0.337 0.263l0.63 2.519h11.555c0.111 0 0.215 0.053 0.28 0.142s0.085 0.204 0.052 0.31l-1.739 5.565c-0.045 0.145-0.18 0.244-0.332 0.244h-8.696c-0.16 0-0.299-0.109-0.337-0.263l-2.021-8.084h-1.815c-0.192 0-0.348-0.156-0.348-0.348zM11.924 13.217l1.217 4.87h8.168l1.522-4.87h-10.907z"></path>
<path fill="#6e7284" style="fill: var(--color2, #6e7284)" d="M14.261 22.261c-0.576 0-1.043-0.467-1.043-1.043s0.467-1.043 1.043-1.043c0.576 0 1.043 0.467 1.043 1.043s-0.467 1.043-1.043 1.043zM14.261 22.957c0.96 0 1.739-0.779 1.739-1.739s-0.779-1.739-1.739-1.739c-0.96 0-1.739 0.779-1.739 1.739s0.779 1.739 1.739 1.739z"></path>
<path fill="#6e7284" style="fill: var(--color2, #6e7284)" d="M19.826 22.261c-0.576 0-1.043-0.467-1.043-1.043s0.467-1.043 1.043-1.043c0.576 0 1.043 0.467 1.043 1.043s-0.467 1.043-1.043 1.043zM19.826 22.957c0.96 0 1.739-0.779 1.739-1.739s-0.779-1.739-1.739-1.739c-0.96 0-1.739 0.779-1.739 1.739s0.779 1.739 1.739 1.739z"></path>
<path fill="#6e7284" style="fill: var(--color2, #6e7284)" d="M35.192 11.823h-1.32v2.785h-0.886v-6.33h0.886v2.749h1.338l1.99-2.749h0.968l-2.261 3.066 2.369 3.265h-1.031l-2.053-2.785zM41.23 14.663c-0.476 0-0.904-0.106-1.284-0.317s-0.678-0.5-0.895-0.868c-0.211-0.374-0.317-0.796-0.317-1.266s0.106-0.889 0.317-1.257c0.217-0.374 0.515-0.663 0.895-0.868 0.38-0.211 0.808-0.317 1.284-0.317s0.901 0.106 1.275 0.317c0.38 0.205 0.675 0.494 0.886 0.868 0.217 0.368 0.326 0.787 0.326 1.257s-0.109 0.892-0.326 1.266c-0.211 0.368-0.506 0.657-0.886 0.868-0.374 0.211-0.799 0.317-1.275 0.317zM41.23 13.903c0.307 0 0.582-0.069 0.823-0.208 0.247-0.145 0.44-0.344 0.579-0.597 0.139-0.259 0.208-0.555 0.208-0.886s-0.069-0.624-0.208-0.877c-0.139-0.259-0.332-0.458-0.579-0.597-0.241-0.139-0.515-0.208-0.823-0.208s-0.585 0.069-0.832 0.208c-0.241 0.139-0.434 0.338-0.579 0.597-0.139 0.253-0.208 0.546-0.208 0.877s0.069 0.627 0.208 0.886c0.145 0.253 0.338 0.452 0.579 0.597 0.247 0.139 0.525 0.208 0.832 0.208zM47.693 9.77c0.464 0 0.88 0.102 1.248 0.307s0.654 0.491 0.859 0.859c0.211 0.368 0.317 0.793 0.317 1.275s-0.106 0.91-0.317 1.284c-0.205 0.368-0.491 0.654-0.859 0.859s-0.784 0.307-1.248 0.307c-0.344 0-0.66-0.066-0.95-0.199-0.283-0.133-0.525-0.326-0.723-0.579v2.478h-0.868v-6.547h0.832v0.76c0.193-0.265 0.437-0.464 0.733-0.597 0.295-0.139 0.621-0.208 0.977-0.208zM47.621 13.903c0.307 0 0.582-0.069 0.823-0.208 0.247-0.145 0.44-0.344 0.579-0.597 0.145-0.259 0.217-0.555 0.217-0.886s-0.072-0.624-0.217-0.877c-0.139-0.259-0.332-0.458-0.579-0.597-0.241-0.139-0.515-0.208-0.823-0.208-0.301 0-0.576 0.072-0.823 0.217-0.241 0.139-0.434 0.335-0.579 0.588-0.139 0.253-0.208 0.546-0.208 0.877s0.069 0.627 0.208 0.886c0.139 0.253 0.332 0.452 0.579 0.597 0.247 0.139 0.521 0.208 0.823 0.208zM54.101 12.113c0.319 0.084 0.567 0.22 0.742 0.407s0.262 0.419 0.262 0.696c0 0.283-0.096 0.537-0.289 0.76-0.193 0.217-0.461 0.389-0.805 0.515-0.338 0.121-0.718 0.181-1.139 0.181-0.356 0-0.705-0.045-1.049-0.136-0.338-0.097-0.639-0.232-0.904-0.407l0.262-0.66c0.229 0.145 0.491 0.259 0.787 0.344 0.295 0.078 0.594 0.118 0.895 0.118 0.41 0 0.736-0.069 0.977-0.208 0.247-0.145 0.371-0.338 0.371-0.579 0-0.223-0.099-0.395-0.298-0.515-0.193-0.121-0.467-0.181-0.823-0.181h-0.877v-0.624h0.814c0.326 0 0.582-0.057 0.769-0.172s0.28-0.271 0.28-0.47c0-0.217-0.112-0.386-0.335-0.506-0.217-0.121-0.513-0.181-0.886-0.181-0.476 0-0.98 0.124-1.51 0.371l-0.235-0.669c0.585-0.295 1.197-0.443 1.836-0.443 0.386 0 0.733 0.054 1.040 0.163s0.549 0.262 0.723 0.461c0.175 0.199 0.262 0.425 0.262 0.678 0 0.235-0.078 0.446-0.235 0.633s-0.368 0.329-0.633 0.425zM56.606 9.816h0.868v3.491l2.939-3.491h0.787v4.793h-0.868v-3.491l-2.93 3.491h-0.796v-4.793zM63.066 9.816h0.868v2.035h2.731v-2.035h0.868v4.793h-0.868v-2.008h-2.731v2.008h-0.868v-4.793zM71.112 9.77c0.663 0 1.169 0.163 1.519 0.488 0.355 0.326 0.534 0.811 0.534 1.456v2.894h-0.823v-0.633c-0.145 0.223-0.353 0.395-0.624 0.515-0.265 0.115-0.582 0.172-0.95 0.172-0.536 0-0.968-0.13-1.293-0.389-0.32-0.259-0.479-0.6-0.479-1.022s0.154-0.76 0.461-1.013c0.307-0.259 0.796-0.389 1.465-0.389h1.375v-0.172c0-0.374-0.109-0.66-0.326-0.859s-0.536-0.298-0.959-0.298c-0.283 0-0.561 0.048-0.832 0.145-0.271 0.090-0.5 0.214-0.687 0.371l-0.362-0.651c0.247-0.199 0.543-0.35 0.886-0.452 0.344-0.109 0.708-0.163 1.094-0.163zM70.913 13.994c0.332 0 0.618-0.072 0.859-0.217 0.241-0.151 0.416-0.362 0.525-0.633v-0.669h-1.338c-0.735 0-1.103 0.247-1.103 0.742 0 0.241 0.093 0.431 0.28 0.57s0.446 0.208 0.778 0.208zM78.613 16.363c-0.344-0.555-0.609-1.191-0.796-1.908-0.187-0.723-0.28-1.498-0.28-2.324s0.093-1.601 0.28-2.324c0.186-0.73 0.452-1.366 0.796-1.908h0.823c-0.362 0.633-0.627 1.296-0.796 1.99s-0.253 1.441-0.253 2.243 0.084 1.549 0.253 2.243c0.168 0.693 0.434 1.357 0.796 1.99h-0.823zM82.925 14.681c-0.5 0-0.946-0.127-1.338-0.38-0.385-0.259-0.69-0.633-0.913-1.121s-0.335-1.067-0.335-1.736 0.112-1.248 0.335-1.736c0.223-0.488 0.528-0.859 0.913-1.112 0.392-0.259 0.838-0.389 1.338-0.389 0.495 0 0.935 0.13 1.32 0.389 0.392 0.253 0.7 0.624 0.922 1.112s0.335 1.067 0.335 1.736-0.111 1.248-0.335 1.736c-0.223 0.488-0.53 0.862-0.922 1.121-0.385 0.253-0.826 0.38-1.32 0.38zM82.925 13.876c0.506 0 0.911-0.208 1.212-0.624 0.307-0.416 0.461-1.019 0.461-1.809s-0.154-1.393-0.461-1.809c-0.301-0.416-0.705-0.624-1.212-0.624-0.512 0-0.922 0.208-1.23 0.624-0.301 0.416-0.452 1.019-0.452 1.809s0.151 1.393 0.452 1.809c0.307 0.416 0.718 0.624 1.23 0.624zM86.407 16.363c0.362-0.633 0.627-1.296 0.796-1.99 0.175-0.693 0.262-1.441 0.262-2.243s-0.087-1.549-0.262-2.243c-0.168-0.693-0.434-1.357-0.796-1.99h0.823c0.35 0.543 0.618 1.176 0.805 1.899s0.28 1.501 0.28 2.333c0 0.826-0.093 1.601-0.28 2.324s-0.455 1.36-0.805 1.908h-0.823z"></path>
<path fill="#a3a6b2" style="fill: var(--color4, #a3a6b2)" d="M37.379 18.991v5.357h-0.559v-2.472h-3.352v2.472h-0.566v-5.357h0.566v2.387h3.352v-2.387h0.559zM42.731 22.504h-3.367c0.031 0.418 0.191 0.758 0.482 1.018 0.291 0.255 0.658 0.383 1.102 0.383 0.25 0 0.48-0.043 0.689-0.13 0.209-0.092 0.39-0.224 0.543-0.398l0.306 0.352c-0.179 0.214-0.403 0.378-0.673 0.49-0.265 0.112-0.559 0.168-0.88 0.168-0.413 0-0.781-0.087-1.102-0.26-0.316-0.179-0.564-0.423-0.742-0.735s-0.268-0.663-0.268-1.056 0.084-0.745 0.253-1.056c0.173-0.311 0.408-0.554 0.704-0.727 0.301-0.173 0.638-0.26 1.010-0.26s0.706 0.087 1.002 0.26c0.296 0.173 0.528 0.416 0.696 0.727 0.168 0.306 0.253 0.658 0.253 1.056l-0.008 0.168zM40.787 20.759c-0.388 0-0.714 0.125-0.979 0.375-0.26 0.245-0.408 0.566-0.444 0.964h2.854c-0.036-0.398-0.186-0.719-0.451-0.964-0.26-0.25-0.587-0.375-0.979-0.375zM46.746 20.805h-1.523v3.543h-0.543v-3.543h-1.523v-0.482h3.589v0.482zM52.672 20.805h-1.523v3.543h-0.543v-3.543h-1.523v-0.482h3.589v0.482zM55.084 24.386c-0.388 0-0.737-0.087-1.048-0.26-0.311-0.179-0.556-0.423-0.735-0.735s-0.268-0.663-0.268-1.056 0.089-0.745 0.268-1.056c0.178-0.311 0.423-0.554 0.735-0.727s0.661-0.26 1.048-0.26c0.388 0 0.737 0.087 1.048 0.26s0.553 0.416 0.727 0.727c0.178 0.311 0.268 0.663 0.268 1.056s-0.089 0.745-0.268 1.056c-0.173 0.311-0.416 0.556-0.727 0.735-0.311 0.173-0.661 0.26-1.048 0.26zM55.084 23.904c0.286 0 0.541-0.064 0.765-0.191 0.23-0.133 0.408-0.319 0.536-0.559s0.191-0.513 0.191-0.819-0.064-0.579-0.191-0.819c-0.128-0.24-0.306-0.423-0.536-0.551-0.224-0.133-0.48-0.199-0.765-0.199s-0.543 0.066-0.773 0.199c-0.224 0.128-0.403 0.311-0.536 0.551-0.128 0.24-0.191 0.513-0.191 0.819s0.064 0.579 0.191 0.819c0.133 0.24 0.311 0.426 0.536 0.559 0.23 0.128 0.487 0.191 0.773 0.191zM61.005 22.266c0.546 0.128 0.819 0.457 0.819 0.987 0 0.352-0.13 0.622-0.39 0.811s-0.648 0.283-1.163 0.283h-1.829v-4.025h1.775c0.459 0 0.819 0.089 1.079 0.268s0.39 0.434 0.39 0.765c0 0.219-0.061 0.408-0.184 0.566-0.117 0.153-0.283 0.268-0.497 0.344zM58.969 22.113h1.209c0.311 0 0.548-0.059 0.712-0.176 0.168-0.117 0.253-0.288 0.253-0.513s-0.084-0.393-0.253-0.505c-0.163-0.112-0.4-0.168-0.712-0.168h-1.209v1.362zM60.247 23.919c0.347 0 0.607-0.056 0.781-0.168s0.26-0.288 0.26-0.528-0.079-0.416-0.237-0.528c-0.158-0.117-0.408-0.176-0.75-0.176h-1.331v1.4h1.278zM64.635 20.292c0.525 0 0.928 0.133 1.209 0.398 0.281 0.26 0.421 0.648 0.421 1.163v2.495h-0.52v-0.627c-0.122 0.209-0.303 0.372-0.543 0.49-0.235 0.117-0.515 0.176-0.842 0.176-0.449 0-0.806-0.107-1.071-0.321s-0.398-0.497-0.398-0.849c0-0.342 0.122-0.617 0.367-0.826 0.25-0.209 0.645-0.314 1.186-0.314h1.278v-0.245c0-0.347-0.097-0.61-0.291-0.788-0.194-0.184-0.477-0.275-0.849-0.275-0.255 0-0.5 0.043-0.735 0.13-0.235 0.082-0.436 0.196-0.605 0.344l-0.245-0.406c0.204-0.173 0.449-0.306 0.735-0.398 0.286-0.097 0.587-0.145 0.903-0.145zM64.443 23.958c0.306 0 0.569-0.069 0.788-0.207 0.219-0.143 0.383-0.347 0.49-0.612v-0.658h-1.263c-0.689 0-1.033 0.24-1.033 0.719 0 0.235 0.089 0.421 0.268 0.559 0.179 0.133 0.429 0.199 0.75 0.199zM69.938 20.292c0.377 0 0.719 0.087 1.025 0.26 0.306 0.168 0.545 0.408 0.719 0.719s0.26 0.666 0.26 1.064c0 0.403-0.087 0.76-0.26 1.071s-0.413 0.554-0.719 0.727c-0.301 0.168-0.643 0.253-1.025 0.253-0.327 0-0.623-0.066-0.888-0.199-0.26-0.138-0.474-0.337-0.643-0.597v2.242h-0.543v-5.51h0.52v0.796c0.163-0.265 0.378-0.469 0.643-0.612 0.27-0.143 0.574-0.214 0.911-0.214zM69.9 23.904c0.28 0 0.536-0.064 0.765-0.191 0.23-0.133 0.408-0.319 0.536-0.559 0.132-0.24 0.199-0.513 0.199-0.819s-0.067-0.576-0.199-0.811c-0.128-0.24-0.306-0.426-0.536-0.559s-0.485-0.199-0.765-0.199c-0.286 0-0.544 0.066-0.773 0.199-0.225 0.133-0.403 0.319-0.536 0.559-0.127 0.235-0.191 0.505-0.191 0.811s0.064 0.579 0.191 0.819c0.133 0.24 0.311 0.426 0.536 0.559 0.23 0.128 0.487 0.191 0.773 0.191zM74.924 24.386c-0.388 0-0.737-0.087-1.048-0.26-0.312-0.179-0.557-0.423-0.735-0.735s-0.268-0.663-0.268-1.056 0.089-0.745 0.268-1.056c0.178-0.311 0.423-0.554 0.735-0.727s0.66-0.26 1.048-0.26c0.387 0 0.737 0.087 1.048 0.26s0.553 0.416 0.727 0.727c0.178 0.311 0.268 0.663 0.268 1.056s-0.090 0.745-0.268 1.056c-0.174 0.311-0.416 0.556-0.727 0.735-0.312 0.173-0.661 0.26-1.048 0.26zM74.924 23.904c0.285 0 0.541-0.064 0.765-0.191 0.23-0.133 0.408-0.319 0.536-0.559s0.191-0.513 0.191-0.819-0.064-0.579-0.191-0.819c-0.128-0.24-0.306-0.423-0.536-0.551-0.225-0.133-0.48-0.199-0.765-0.199s-0.543 0.066-0.773 0.199c-0.225 0.128-0.403 0.311-0.536 0.551-0.128 0.24-0.191 0.513-0.191 0.819s0.063 0.579 0.191 0.819c0.132 0.24 0.311 0.426 0.536 0.559 0.23 0.128 0.487 0.191 0.773 0.191zM80.845 22.266c0.545 0.128 0.819 0.457 0.819 0.987 0 0.352-0.13 0.622-0.39 0.811s-0.648 0.283-1.163 0.283h-1.829v-4.025h1.775c0.459 0 0.819 0.089 1.079 0.268s0.39 0.434 0.39 0.765c0 0.219-0.061 0.408-0.184 0.566-0.118 0.153-0.283 0.268-0.497 0.344zM78.809 22.113h1.209c0.311 0 0.548-0.059 0.712-0.176 0.168-0.117 0.253-0.288 0.253-0.513s-0.084-0.393-0.253-0.505c-0.163-0.112-0.401-0.168-0.712-0.168h-1.209v1.362zM80.087 23.919c0.346 0 0.607-0.056 0.781-0.168s0.26-0.288 0.26-0.528-0.079-0.416-0.237-0.528c-0.159-0.117-0.408-0.176-0.75-0.176h-1.331v1.4h1.278z"></path>
<path fill="#dedfe7" style="fill: var(--color3, #dedfe7)" d="M8.348 0.696h84.87v-1.391h-84.87v1.391zM100.87 8.348v15.304h1.391v-15.304h-1.391zM93.217 31.304h-84.87v1.391h84.87v-1.391zM0.696 23.652v-15.304h-1.391v15.304h1.391zM8.348 31.304c-4.226 0-7.652-3.426-7.652-7.652h-1.391c0 4.995 4.049 9.043 9.043 9.043v-1.391zM100.87 23.652c0 4.226-3.426 7.652-7.652 7.652v1.391c4.995 0 9.043-4.049 9.043-9.043h-1.391zM93.217 0.696c4.226 0 7.652 3.426 7.652 7.652h1.391c0-4.995-4.049-9.043-9.043-9.043v1.391zM8.348-0.696c-4.995 0-9.043 4.049-9.043 9.043h1.391c0-4.226 3.426-7.652 7.652-7.652v-1.391z"></path>
</symbol>
<symbol id="icon-search" viewBox="0 0 32 32">
<path fill="none" stroke="#0a4ecb" style="stroke: var(--color1, #0a4ecb)" stroke-linejoin="miter" stroke-linecap="butt" stroke-miterlimit="4" stroke-width="1.6842" d="M26.105 13.474c0 6.976-5.655 12.632-12.632 12.632s-12.632-5.655-12.632-12.632c0-6.976 5.655-12.632 12.632-12.632s12.632 5.655 12.632 12.632z"></path>
<path fill="none" stroke="#0a4ecb" style="stroke: var(--color1, #0a4ecb)" stroke-linejoin="round" stroke-linecap="round" stroke-miterlimit="4" stroke-width="1.6842" d="M22.737 22.737l8.421 8.421"></path>
</symbol>

<symbol id="icon-menu_phone" viewBox="0 0 32 32">
<path fill="#fff" style="fill: var(--color1, #fff)" d="M9.6 0.4h12.8c5.081 0 9.2 4.119 9.2 9.2v12.8c0 5.081-4.119 9.2-9.2 9.2h-12.8c-5.081 0-9.2-4.119-9.2-9.2v-12.8c0-5.081 4.119-9.2 9.2-9.2z"></path>
<path fill="#0a4ecb" style="fill: var(--color2, #0a4ecb)" d="M10 10.4h12c0.221 0 0.4 0.179 0.4 0.4s-0.179 0.4-0.4 0.4h-12c-0.221 0-0.4-0.179-0.4-0.4s0.179-0.4 0.4-0.4z"></path>
<path fill="#0a4ecb" style="fill: var(--color2, #0a4ecb)" d="M10 20h12c0.221 0 0.4 0.179 0.4 0.4s-0.179 0.4-0.4 0.4h-12c-0.221 0-0.4-0.179-0.4-0.4s0.179-0.4 0.4-0.4z"></path>
<path fill="#0a4ecb" style="fill: var(--color2, #0a4ecb)" d="M10 15.2h12c0.221 0 0.4 0.179 0.4 0.4s-0.179 0.4-0.4 0.4h-12c-0.221 0-0.4-0.179-0.4-0.4s0.179-0.4 0.4-0.4z"></path>
<path fill="none" stroke="#dedfe7" style="stroke: var(--color3, #dedfe7)" stroke-linejoin="miter" stroke-linecap="butt" stroke-miterlimit="4" stroke-width="0.8" d="M9.6 0.4h12.8c5.081 0 9.2 4.119 9.2 9.2v12.8c0 5.081-4.119 9.2-9.2 9.2h-12.8c-5.081 0-9.2-4.119-9.2-9.2v-12.8c0-5.081 4.119-9.2 9.2-9.2z"></path>
</symbol>
<symbol id="icon-sale" viewBox="0 0 32 32">
<path fill="none" stroke="#fffa2f" style="stroke: var(--color1, #fffa2f)" stroke-linejoin="miter" stroke-linecap="butt" stroke-miterlimit="4" stroke-width="2" d="M13 10c0 1.657-1.343 3-3 3s-3-1.343-3-3c0-1.657 1.343-3 3-3s3 1.343 3 3z"></path>
<path fill="none" stroke="#fffa2f" style="stroke: var(--color1, #fffa2f)" stroke-linejoin="miter" stroke-linecap="butt" stroke-miterlimit="4" stroke-width="2" d="M25 22c0 1.657-1.343 3-3 3s-3-1.343-3-3c0-1.657 1.343-3 3-3s3 1.343 3 3z"></path>
<path fill="#fffa2f" style="fill: var(--color1, #fffa2f)" d="M22 8l2 2-14 14-2-2 14-14z"></path>
</symbol>
<symbol id="icon-catalog-down" viewBox="0 0 32 32">
<path fill="#fff" style="fill: var(--color1, #fff)" d="M8 12l2-2 6 6 6-6 2 2-8 8-8-8z"></path>
</symbol>
<symbol id="icon-catalog-menu" viewBox="0 0 32 32">
<path fill="#fff" style="fill: var(--color1, #fff)" d="M6 9c0-0.552 0.448-1 1-1h18c0.552 0 1 0.448 1 1v0c0 0.552-0.448 1-1 1h-18c-0.552 0-1-0.448-1-1v0z"></path>
<path fill="#fff" style="fill: var(--color1, #fff)" d="M6 15c0-0.552 0.448-1 1-1h18c0.552 0 1 0.448 1 1v0c0 0.552-0.448 1-1 1h-18c-0.552 0-1-0.448-1-1v0z"></path>
<path fill="#fff" style="fill: var(--color1, #fff)" d="M6 21c0-0.552 0.448-1 1-1h18c0.552 0 1 0.448 1 1v0c0 0.552-0.448 1-1 1h-18c-0.552 0-1-0.448-1-1v0z"></path>
</symbol>
</defs>
</svg>
